<?xml version="1.0" encoding="utf-8" ?>
<svg baseProfile="tiny" height="768px" version="1.2" width="1365px" xmlns="http://www.w3.org/2000/svg" xmlns:ev="http://www.w3.org/2001/xml-events" xmlns:xlink="http://www.w3.org/1999/xlink"><defs /><rect fill="#F47A2A" height="768px" width="1365px" x="0" y="0" /><rect fill="#F7C93C" height="200" rx="20" ry="20" width="600" x="350" y="400" /><rect fill="#2D9CDB" height="120" rx="20" ry="20" width="120" x="850" y="450" /><rect fill="#A0522D" height="100" rx="5" ry="5" width="750" x="300" y="600" /><rect fill="#E0C79A" height="180" width="40" x="150" y="350" /><polygon fill="#F2E2B6" points="120,350 220,350 170,280" /><rect fill="#8B4513" height="100" width="80" x="1100" y="500" /><ellipse cx="1150" cy="430" fill="#2E7D32" rx="50" ry="100" /><ellipse cx="1200" cy="480" fill="#2E7D32" rx="50" ry="100" /><circle cx="650" cy="300" fill="#4E342E" r="80" /><rect fill="#1A3A5C" height="200" rx="40" ry="40" width="160" x="600" y="380" /><rect fill="#4E342E" height="60" rx="30" ry="30" width="120" x="720" y="420" /><rect fill="#4E342E" height="100" rx="20" ry="20" width="60" x="720" y="480" /><rect fill="#222222" height="110" rx="10" ry="10" width="70" x="770" y="470" /></svg>